<svg xmlns="http://www.w3.org/2000/svg" xmlns:xlink="http://www.w3.org/1999/xlink" viewBox="380 266 930 391" width="930" height="391" xml:space="preserve">

<path fill="#FCFCFD" opacity="1.000000" stroke="none" 
	d="
M987.555420,470.452515 
	C986.298462,467.700470 984.116272,465.000488 983.958008,462.186646 
	C983.481445,453.715454 983.730774,445.199371 983.816223,436.701965 
	C983.887634,429.601746 988.205627,425.289429 995.372803,425.079865 
	C998.702087,424.982452 1002.037415,425.100311 1005.369995,425.108704 
	C1008.685608,425.117065 1012.001160,425.110535 1015.565002,425.110535 
	C1016.045898,416.271606 1015.935791,407.615204 1017.087830,399.130127 
	C1020.509705,373.927612 1031.679932,353.645905 1055.617798,342.322632 
	C1066.296387,337.271362 1077.770020,335.050995 1089.541870,334.834595 
	C1102.368530,334.598816 1115.202637,334.674194 1128.032715,334.748352 
	C1135.302979,334.790375 1139.953125,339.298004 1140.100220,346.546936 
	C1140.262329,354.541595 1140.253174,362.547028 1140.033936,370.539978 
	C1139.828003,378.050079 1135.478149,382.085754 1127.918701,382.125549 
	C1118.587524,382.174683 1109.255005,382.055298 1099.924438,382.149963 
	C1081.029663,382.341675 1070.546509,392.641510 1070.010986,411.497498 
	C1069.888794,415.802765 1069.993164,420.114471 1069.993164,424.774780 
	C1107.283325,424.774780 1144.314331,424.774780 1182.552490,424.774780 
	C1182.552490,416.667084 1181.878540,408.650024 1182.666870,400.779419 
	C1186.490112,362.607574 1211.462891,337.969940 1249.705322,335.209930 
	C1264.794800,334.120880 1280.014160,334.687134 1295.172852,334.773315 
	C1301.158081,334.807312 1305.414307,339.655090 1305.503906,346.062347 
	C1305.618042,354.224579 1305.610718,362.393799 1305.404297,370.553650 
	C1305.214600,378.048615 1300.923096,381.981140 1293.286621,382.118896 
	C1281.801880,382.326050 1270.245605,381.815247 1258.851196,382.940460 
	C1245.044312,384.303925 1237.644043,392.089661 1235.783691,405.767365 
	C1234.940186,411.968292 1235.079712,418.302887 1234.749390,425.067627 
	C1243.868896,425.067627 1252.312866,425.070801 1260.756836,425.066803 
	C1271.588013,425.061707 1282.419312,425.013641 1293.250366,425.054962 
	C1301.084106,425.084808 1305.336304,429.257904 1305.434570,437.013275 
	C1305.533691,444.844025 1305.561157,452.676361 1305.537231,460.507751 
	C1305.511108,469.010956 1301.565552,473.008270 1292.918945,473.048431 
	C1277.422363,473.120422 1261.925293,473.040619 1246.428345,473.025879 
	C1242.791260,473.022400 1239.154175,473.025360 1235.203247,473.025360 
	C1235.105957,475.036041 1235.027710,476.654907 1234.511963,478.538940 
	C1233.314087,477.209351 1232.553589,475.614655 1231.793091,474.019989 
	C1231.275024,474.085510 1230.756958,474.151031 1230.238892,474.216553 
	C1231.053955,515.095886 1230.322632,555.920776 1227.534546,596.981812 
	C1223.195190,594.343140 1220.086792,591.195129 1216.595093,588.553955 
	C1215.259644,587.544006 1212.344971,586.760925 1211.369873,587.494934 
	C1208.755615,589.462891 1211.479370,590.599487 1212.815186,591.948547 
	C1215.109375,594.265320 1217.631104,596.505066 1219.300415,599.239258 
	C1220.377808,601.003845 1220.104980,603.592651 1220.437256,605.812134 
	C1218.461548,605.620239 1216.462036,605.555420 1214.518677,605.191528 
	C1213.237061,604.951538 1211.973022,604.399719 1210.810181,603.782227 
	C1207.169800,601.849243 1203.581177,599.818848 1199.462769,597.544800 
	C1198.858154,600.842712 1199.126831,603.815063 1197.786377,605.528809 
	C1196.221802,607.529175 1193.328613,608.617432 1190.825317,609.648193 
	C1190.334473,609.850281 1188.204468,608.018860 1188.163086,607.067444 
	C1187.662354,595.531555 1187.449463,583.983704 1187.083984,572.441406 
	C1186.783569,562.954041 1186.300293,553.471863 1186.067383,543.983215 
	C1185.993774,540.986450 1184.242310,540.896851 1182.100098,540.998230 
	C1182.034790,529.305054 1181.969604,517.611816 1182.423340,505.457764 
	C1183.959961,503.907654 1185.679565,502.923309 1185.861206,501.709015 
	C1186.364380,498.343201 1185.810303,494.801392 1186.450195,491.478668 
	C1187.207642,487.545776 1186.116821,485.822571 1182.127197,485.997620 
	C1182.051025,483.621918 1181.974854,481.246185 1182.389160,478.436035 
	C1184.188232,477.310577 1185.496704,476.619507 1186.805176,475.928406 
	C1186.076660,474.759979 1185.588989,472.987366 1184.558594,472.576569 
	C1183.281494,472.067505 1181.554565,472.686920 1180.021973,472.818817 
	C1162.587769,472.910461 1145.153564,473.032593 1127.719238,473.085205 
	C1110.107666,473.138306 1092.495728,473.094666 1074.884399,473.182159 
	C1073.211914,473.190460 1071.542725,473.830994 1069.319824,474.585144 
	C1065.435059,474.665070 1063.771851,475.960114 1063.952148,479.521637 
	C1064.124512,482.926422 1064.034058,486.346985 1063.992798,489.759827 
	C1063.669678,516.478760 1063.666870,543.209717 1062.695557,569.905396 
	C1062.514526,574.882019 1062.642212,581.680725 1055.747192,584.602966 
	C1054.658203,585.064514 1054.734863,588.668518 1054.592041,590.840515 
	C1054.487671,592.429688 1054.907104,594.053284 1055.093140,595.661499 
	C1053.392212,594.937927 1051.515625,594.469666 1050.023682,593.442505 
	C1045.700562,590.466125 1041.094971,588.703918 1035.812622,589.619812 
	C1032.051392,590.272034 1028.340454,591.214478 1023.799744,592.203247 
	C1023.153992,584.897888 1022.226440,578.383728 1022.068848,571.850952 
	C1021.651794,554.559937 1021.423218,537.261047 1021.398438,519.964966 
	C1021.379456,506.667297 1021.827332,493.369507 1021.983154,480.070801 
	C1022.071411,472.537445 1019.460815,470.241638 1011.852905,469.937744 
	C1004.656128,469.650208 997.483887,468.774414 990.288513,468.387909 
	C989.416931,468.341064 988.468323,469.729309 987.555420,470.452515 
M1138.500000,471.000000 
	C1152.216919,471.000000 1165.933716,471.000000 1179.650635,471.000000 
	C1179.646729,470.763062 1179.642822,470.526123 1179.638916,470.289185 
	C1143.812256,470.289185 1107.985596,470.289185 1072.159058,470.289185 
	C1072.158691,470.526123 1072.158325,470.763062 1072.157959,471.000000 
	C1093.938599,471.000000 1115.719360,471.000000 1138.500000,471.000000 
M1035.913452,578.635681 
	C1035.340942,578.884705 1034.768433,579.133789 1034.195923,579.382812 
	C1034.672852,579.858276 1035.149658,580.333801 1035.626709,580.809265 
	C1035.876343,580.237976 1036.125977,579.666626 1035.913452,578.635681 
M1196.371216,586.565369 
	C1196.924316,586.791382 1197.477295,587.017395 1198.030396,587.243408 
	C1198.131104,586.677185 1198.231689,586.110962 1198.332275,585.544678 
	C1197.767334,585.711426 1197.202271,585.878174 1196.371216,586.565369 
M1032.490723,583.851440 
	C1032.790283,583.428162 1033.089844,583.004883 1033.389404,582.581604 
	C1032.946045,582.468689 1032.502686,582.355774 1032.059448,582.242920 
	C1032.006348,582.738098 1031.953247,583.233276 1032.490723,583.851440 
z"/>
<path fill="#FBFBFC" opacity="1.000000" stroke="none" 
	d="
M394.762848,546.564819 
	C392.603943,539.970093 389.752533,533.513916 388.400879,526.757690 
	C380.825806,488.893646 383.714355,452.270142 402.209442,417.628357 
	C424.664062,375.570312 459.309570,349.384277 505.654510,339.111206 
	C518.079712,336.356934 531.052795,335.052429 543.793091,334.923004 
	C592.437866,334.428802 641.090271,334.676086 689.739868,334.669983 
	C700.256165,334.668671 704.842041,339.347626 704.890076,350.009979 
	C704.926819,358.173615 704.957458,366.337433 704.946045,374.501129 
	C704.932495,384.257660 699.970154,389.119141 690.074524,389.118530 
	C644.590576,389.115753 599.106567,389.118103 553.622620,389.100677 
	C530.438293,389.091766 508.481934,393.926453 489.185181,407.206177 
	C456.339905,429.809784 442.597107,461.606598 445.801514,500.985229 
	C446.989746,515.587097 451.562408,529.244995 458.319519,542.236023 
	C459.634277,544.763733 461.054352,545.860779 463.909698,546.112793 
	C480.502960,547.577393 497.067413,549.372925 513.665588,550.772583 
	C517.504272,551.096252 519.611694,552.644897 521.252258,556.015442 
	C525.624695,564.998108 530.424011,573.772827 534.804077,582.751892 
	C536.334595,585.889282 538.269348,587.458374 541.829651,587.995667 
	C553.016541,589.683838 564.173279,591.624634 575.263733,593.855164 
	C577.526123,594.310181 579.792053,596.130005 581.447021,597.892822 
	C583.821045,600.421509 586.137756,603.243530 587.577332,606.357056 
	C590.077393,611.764465 594.019958,612.762695 599.552429,612.723206 
	C629.872986,612.506775 660.197266,612.808350 690.517639,612.580688 
	C697.205933,612.530518 702.357971,614.502014 706.963745,619.252686 
	C711.943176,624.388611 717.249207,629.238037 722.702759,633.871033 
	C725.291443,636.070190 726.400513,638.390747 725.390625,641.958252 
	C701.879822,638.717041 678.882080,635.129089 655.879700,631.571167 
	C641.269470,629.311279 626.652466,627.095825 611.656067,624.655457 
	C609.843872,624.322998 608.414001,624.195496 606.639771,623.890137 
	C599.882507,622.774292 593.469604,621.836182 587.042236,620.938721 
	C587.027771,620.979309 587.105896,620.942932 586.992188,620.751221 
	C586.637207,620.355042 586.359436,620.270935 585.841797,620.103638 
	C585.401672,619.603882 585.164917,619.307617 584.943359,618.665283 
	C581.763428,613.853760 578.710449,609.274902 575.291016,604.988342 
	C574.186890,603.604248 572.226990,602.464172 570.475952,602.106323 
	C559.547974,599.873169 548.552673,597.971375 537.615295,595.781860 
	C534.397461,595.137695 531.295166,593.916992 528.087219,592.683228 
	C527.760437,592.171692 527.486328,591.937439 527.247803,591.757202 
	C527.283386,591.811157 527.352661,591.702026 527.306763,591.346924 
	C522.538147,581.829651 517.943237,572.597229 512.979065,563.567749 
	C512.043152,561.865417 509.773834,560.162048 507.885040,559.841248 
	C498.226929,558.200928 488.508606,556.872559 478.777924,555.716736 
	C472.214203,554.937134 465.595062,554.624329 458.580383,554.011353 
	C452.357147,553.252136 446.550751,552.612610 440.752228,551.908508 
	C434.782806,551.183655 428.827850,550.335938 422.854248,549.649353 
	C413.495911,548.573730 404.127167,547.588379 394.762848,546.564819 
z"/>
<path fill="#FBFBFB" opacity="1.000000" stroke="none" 
	d="
M753.009033,598.996643 
	C752.815125,596.353943 752.453003,593.711426 752.451538,591.068604 
	C752.406921,510.469330 752.397156,429.870087 752.383728,349.270813 
	C752.382080,339.418304 757.188477,334.667145 767.146667,334.658173 
	C775.639526,334.650543 784.132751,334.588776 792.625244,334.643219 
	C801.613098,334.700867 806.464844,339.772308 806.455933,348.644287 
	C806.392517,411.923889 806.377136,475.203522 806.336975,538.483154 
	C806.327393,553.637024 806.053223,568.795898 806.385437,583.941895 
	C806.492249,588.811646 807.233154,594.123535 809.412292,598.339905 
	C811.005066,601.421631 815.426147,603.041565 818.661011,605.809509 
	C817.049255,605.913513 815.062744,605.953857 813.740784,605.036621 
	C811.170959,603.253357 809.551025,603.400757 806.817139,605.278259 
	C802.403564,608.309143 797.309204,610.382690 792.394531,612.624329 
	C791.262146,613.140869 789.693420,612.700562 788.325439,612.700562 
	C788.093994,612.166748 787.862549,611.632996 787.631042,611.099182 
	C789.165833,610.002686 790.844910,609.059875 792.207886,607.780396 
	C796.033813,604.188843 800.386414,600.893494 803.220093,596.613281 
	C804.812500,594.207886 803.810730,590.085144 803.921692,587.860657 
	C801.460571,584.725891 799.304443,581.979492 797.148254,579.233154 
	C799.450500,578.283997 801.752747,577.334839 804.437012,576.228149 
	C804.437012,571.036438 804.437012,564.777100 804.437012,557.073303 
	C801.378052,561.799316 799.156189,565.232056 797.621643,567.602844 
	C793.088135,568.745300 789.470520,569.810059 785.785645,570.529907 
	C783.449463,570.986328 780.947876,571.363281 778.634399,571.016418 
	C773.018433,570.174133 767.468933,568.888245 761.495728,567.702271 
	C759.881714,564.512939 757.914551,560.625854 755.947388,556.738770 
	C755.455139,556.966492 754.962891,557.194214 754.470642,557.421936 
	C754.324768,558.208313 754.024963,559.000977 754.057190,559.780029 
	C754.337585,566.568604 755.052429,573.363647 754.890259,580.138916 
	C754.739563,586.436218 753.672607,592.711609 753.009033,598.996643 
M797.598083,557.802002 
	C797.210693,557.797729 796.823303,557.793396 796.435913,557.789185 
	C796.434326,557.949951 796.421875,558.250427 796.432617,558.251221 
	C796.818115,558.281128 797.205750,558.283020 797.598083,557.802002 
z"/>
<path fill="#FBFBFC" opacity="1.000000" stroke="none" 
	d="
M937.259583,595.999878 
	C937.242371,610.656799 937.261292,624.813904 937.190796,638.970581 
	C937.146301,647.893372 932.885254,652.185669 924.008484,652.256470 
	C915.348389,652.325500 906.687134,652.260254 898.026428,652.254456 
	C887.605286,652.247559 883.841553,648.555298 883.838196,638.258118 
	C883.829407,611.276733 883.844788,584.295410 883.840942,557.314026 
	C883.835022,515.842590 883.824280,474.371216 883.808105,432.899811 
	C883.804199,422.759399 887.792236,418.785217 898.067322,418.777374 
	C906.894592,418.770630 915.721924,418.773773 924.549133,418.802124 
	C933.491028,418.830841 937.285034,422.609558 937.285828,431.612518 
	C937.290710,486.241608 937.270020,540.870728 937.259583,595.999878 
z"/>
<path fill="#F8F9FC" opacity="1.000000" stroke="none" 
	d="
M752.927917,599.440002 
	C753.672607,592.711609 754.739563,586.436218 754.890259,580.138916 
	C755.052429,573.363647 754.337585,566.568604 754.057190,559.780029 
	C754.024963,559.000977 754.324768,558.208313 754.470642,557.421936 
	C754.962891,557.194214 755.455139,556.966492 755.947388,556.738770 
	C757.914551,560.625854 759.881714,564.512939 761.495728,567.702271 
	C767.468933,568.888245 773.018433,570.174133 778.634399,571.016418 
	C780.947876,571.363281 783.449463,570.986328 785.785645,570.529907 
	C789.470520,569.810059 793.088135,568.745300 797.621643,567.602844 
	C799.156189,565.232056 801.378052,561.799316 804.437012,557.073303 
	C804.437012,564.777100 804.437012,571.036438 804.437012,576.228149 
	C801.752747,577.334839 799.450500,578.283997 797.148254,579.233154 
	C799.304443,581.979492 801.460571,584.725891 803.921692,587.860657 
	C803.810730,590.085144 804.812500,594.207886 803.220093,596.613281 
	C800.386414,600.893494 796.033813,604.188843 792.207886,607.780396 
	C790.844910,609.059875 789.165833,610.002686 787.631042,611.099182 
	C787.862549,611.632996 788.093994,612.166748 788.325439,612.700562 
	C789.693420,612.700562 791.262146,613.140869 792.394531,612.624329 
	C797.309204,610.382690 802.403564,608.309143 806.817139,605.278259 
	C809.551025,603.400757 811.170959,603.253357 813.740784,605.036621 
	C815.062744,605.953857 817.049255,605.913513 818.926697,606.023193 
	C819.281433,605.696716 819.444885,605.653015 819.950928,606.092773 
	C823.269592,609.979187 821.473938,611.468506 818.215759,613.263733 
	C816.423828,614.251099 815.529846,616.868042 814.230957,618.750122 
	C816.667664,618.899353 819.103149,619.087402 821.542114,619.160828 
	C821.965515,619.173584 822.428894,618.737549 822.830872,618.448914 
	C826.753723,615.631897 830.498657,612.502075 834.681335,610.149536 
	C836.024109,609.394348 838.931763,610.131165 840.354065,611.204773 
	C841.550476,612.107910 842.648621,615.186584 842.026611,616.096558 
	C839.439697,619.880798 837.820374,624.950134 831.776123,625.203308 
	C830.498169,625.256836 828.329895,627.380127 828.320740,628.563293 
	C828.308960,630.082031 829.734680,632.303162 831.137939,632.975342 
	C833.108948,633.919434 835.705444,633.456421 837.887573,634.096069 
	C839.368347,634.530212 841.722534,635.797852 841.744263,636.737549 
	C841.839600,640.861450 844.974731,645.644897 839.736633,648.994141 
	C839.143250,649.373474 839.228821,650.814636 838.999634,651.763428 
	C822.059204,652.449463 805.019043,653.987305 788.355774,649.708435 
	C767.737183,644.414124 755.079895,627.303711 752.963440,602.878296 
	C752.877319,601.884094 752.883545,600.881836 752.927917,599.440002 
z"/>
<path fill="#F8F9FC" opacity="1.000000" stroke="none" 
	d="
M987.569458,470.447357 
	C988.468323,469.729309 989.416931,468.341064 990.288513,468.387909 
	C997.483887,468.774414 1004.656128,469.650208 1011.852905,469.937744 
	C1019.460815,470.241638 1022.071411,472.537445 1021.983154,480.070801 
	C1021.827332,493.369507 1021.379456,506.667297 1021.398438,519.964966 
	C1021.423218,537.261047 1021.651794,554.559937 1022.068848,571.850952 
	C1022.226440,578.383728 1023.153992,584.897888 1023.799744,592.203247 
	C1028.340454,591.214478 1032.051392,590.272034 1035.812622,589.619812 
	C1041.094971,588.703918 1045.700562,590.466125 1050.023682,593.442505 
	C1051.515625,594.469666 1053.392212,594.937927 1055.093140,595.661499 
	C1054.907104,594.053284 1054.487671,592.429688 1054.592041,590.840515 
	C1054.734863,588.668518 1054.658203,585.064514 1055.747192,584.602966 
	C1062.642212,581.680725 1062.514526,574.882019 1062.695557,569.905396 
	C1063.666870,543.209717 1063.669678,516.478760 1063.992798,489.759827 
	C1064.034058,486.346985 1064.124512,482.926422 1063.952148,479.521637 
	C1063.771851,475.960114 1065.435059,474.665070 1069.158325,474.991211 
	C1069.626953,497.141876 1069.743774,519.293518 1069.774048,541.445312 
	C1069.817993,573.605225 1069.792847,605.765259 1069.812012,637.925232 
	C1069.817871,647.793335 1065.440186,652.232178 1055.522949,652.269348 
	C1047.024902,652.301208 1038.526611,652.284790 1030.028442,652.286499 
	C1020.230530,652.288452 1015.956909,648.086426 1015.958130,638.398376 
	C1015.964844,585.575500 1015.985046,532.752625 1015.978455,479.929749 
	C1015.978210,477.782928 1015.755920,475.636078 1015.213135,472.809326 
	C1013.283264,471.753326 1011.787476,471.103455 1010.269897,471.047485 
	C1002.708679,470.768585 995.141785,470.645874 987.576843,470.468231 
	C987.576843,470.468231 987.583496,470.442230 987.569458,470.447357 
z"/>
<path fill="#F7F8FA" opacity="1.000000" stroke="none" 
	d="
M1181.994507,541.454712 
	C1184.242310,540.896851 1185.993774,540.986450 1186.067383,543.983215 
	C1186.300293,553.471863 1186.783569,562.954041 1187.083984,572.441406 
	C1187.449463,583.983704 1187.662354,595.531555 1188.163086,607.067444 
	C1188.204468,608.018860 1190.334473,609.850281 1190.825317,609.648193 
	C1193.328613,608.617432 1196.221802,607.529175 1197.786377,605.528809 
	C1199.126831,603.815063 1198.858154,600.842712 1199.462769,597.544800 
	C1203.581177,599.818848 1207.169800,601.849243 1210.810181,603.782227 
	C1211.973022,604.399719 1213.237061,604.951538 1214.518677,605.191528 
	C1216.462036,605.555420 1218.461548,605.620239 1220.437256,605.812134 
	C1220.104980,603.592651 1220.377808,601.003845 1219.300415,599.239258 
	C1217.631104,596.505066 1215.109375,594.265320 1212.815186,591.948547 
	C1211.479370,590.599487 1208.755615,589.462891 1211.369873,587.494934 
	C1212.344971,586.760925 1215.259644,587.544006 1216.595093,588.553955 
	C1220.086792,591.195129 1223.195190,594.343140 1227.534546,596.981812 
	C1230.322632,555.920776 1231.053955,515.095886 1230.238892,474.216553 
	C1230.756958,474.151031 1231.275024,474.085510 1231.793091,474.019989 
	C1232.553589,475.614655 1233.314087,477.209351 1234.424561,478.899292 
	C1234.828857,482.325012 1234.883301,485.655457 1234.477295,489.567596 
	C1234.264404,492.098511 1234.511963,494.047699 1234.759521,495.996887 
	C1234.819336,506.735565 1234.879272,517.474243 1234.590820,528.687500 
	C1234.416992,529.356995 1234.591553,529.551941 1234.765991,529.746826 
	C1234.817993,540.545837 1234.869995,551.344788 1234.480957,562.680237 
	C1232.726929,565.949463 1231.583252,568.666992 1234.740967,570.996826 
	C1234.799438,572.758667 1234.858032,574.520508 1234.489014,576.736694 
	C1234.290161,577.762817 1234.518921,578.334595 1234.747681,578.906311 
	C1234.806274,586.305115 1234.864868,593.703918 1234.493896,601.647339 
	C1234.291260,602.763855 1234.518188,603.335693 1234.745361,603.907593 
	C1234.804077,604.332642 1234.862793,604.757690 1234.429932,605.705444 
	C1232.911621,611.220520 1231.445435,616.236633 1234.733398,620.996826 
	C1234.792114,621.445251 1234.850830,621.893738 1234.450195,622.794495 
	C1233.747925,628.817444 1233.478027,634.387268 1233.330322,639.960449 
	C1233.321533,640.292664 1234.291992,640.650818 1234.806885,640.996948 
	C1233.773193,648.498962 1229.599121,652.238708 1222.247192,652.247131 
	C1213.085938,652.257568 1203.924438,652.306274 1194.763306,652.264648 
	C1186.083496,652.225159 1181.894653,648.103394 1181.883301,639.361145 
	C1181.840942,606.877869 1181.880249,574.394470 1181.994507,541.454712 
z"/>
<path fill="#0084FB" opacity="1.000000" stroke="none" 
	d="
M555.961853,652.106750 
	C530.878784,652.103577 507.229248,646.020264 485.011017,634.636963 
	C467.376465,625.602051 467.516022,625.332764 460.373199,606.771484 
	C459.598114,604.757324 458.782227,602.758850 458.374939,600.334900 
	C464.050385,597.523865 466.160919,601.517822 467.845215,604.993591 
	C469.673157,608.765808 472.017578,609.449890 475.831726,608.638306 
	C482.619598,607.194092 486.415070,609.291260 490.434753,615.446350 
	C491.317017,616.797302 493.180450,617.868286 494.799591,618.313538 
	C501.109070,620.048706 507.477844,621.589722 513.868713,623.003418 
	C529.162537,626.386353 544.516235,629.505737 559.773315,633.044067 
	C566.114868,634.514771 572.239624,636.897461 578.524475,638.644165 
	C582.333801,639.702820 586.263367,640.326721 590.134521,641.165833 
	C594.448853,642.100891 598.767700,643.017212 603.067322,644.016296 
	C608.527039,645.284973 614.510864,645.472717 617.520508,650.996948 
	C598.567017,650.998535 580.080627,650.966553 561.594666,651.046631 
	C559.715576,651.054810 557.839417,651.737244 555.961853,652.106750 
z"/>
<path fill="#04A3FB" opacity="1.000000" stroke="none" 
	d="
M394.976318,546.802490 
	C404.127167,547.588379 413.495911,548.573730 422.854248,549.649353 
	C428.827850,550.335938 434.782806,551.183655 440.752228,551.908508 
	C446.550751,552.612610 452.357147,553.252136 458.567139,554.393311 
	C458.242218,555.585510 457.627930,556.684326 456.756744,556.954346 
	C453.752350,557.885498 450.594788,558.342896 447.627075,559.363159 
	C446.287109,559.823914 445.257141,561.186218 444.086517,562.139465 
	C445.184692,563.173035 446.145020,564.432922 447.405273,565.200317 
	C452.466217,568.282104 457.755463,566.211304 462.890167,565.446411 
	C466.269226,564.943115 468.555664,564.536133 469.258789,569.094727 
	C469.542664,570.934998 472.118774,572.883179 474.104553,573.881897 
	C476.552032,575.112976 479.915314,574.748596 482.103302,576.227173 
	C488.277466,580.399658 495.003906,582.903259 502.148224,584.609741 
	C503.397949,584.908264 504.650757,585.524536 505.700287,586.275940 
	C511.908356,590.720703 517.387451,597.687195 526.381104,591.910645 
	C526.641968,591.743103 527.026062,591.767273 527.352661,591.702026 
	C527.352661,591.702026 527.283386,591.811157 527.283813,592.040527 
	C527.569519,592.500122 527.854736,592.730286 528.139893,592.960510 
	C531.295166,593.916992 534.397461,595.137695 537.615295,595.781860 
	C548.552673,597.971375 559.547974,599.873169 570.475952,602.106323 
	C572.226990,602.464172 574.186890,603.604248 575.291016,604.988342 
	C578.710449,609.274902 581.763428,613.853760 584.573730,618.667725 
	C582.434814,619.865540 580.737000,620.876953 578.908447,621.511353 
	C577.516174,621.994446 575.642639,622.647644 574.527466,622.105469 
	C569.384033,619.605225 564.456421,616.665344 559.395325,613.989014 
	C557.822266,613.157104 556.038391,612.020569 554.409851,612.108948 
	C541.821045,612.791687 530.675537,607.612732 519.333313,603.513611 
	C510.359711,600.270569 501.706696,596.143799 492.891022,592.458069 
	C490.494873,591.456177 488.045654,590.569824 485.585236,589.735291 
	C478.923706,587.475952 471.041809,588.132568 466.186218,581.509644 
	C465.832886,581.027649 464.651642,581.093750 463.844543,581.013428 
	C460.232208,580.654175 456.616028,580.334167 452.595764,580.014282 
	C448.165192,581.380859 450.742737,584.803406 449.951233,587.169617 
	C448.342529,582.366821 446.882019,577.506226 445.045135,572.792297 
	C444.397308,571.129883 443.138458,569.169739 441.633118,568.459839 
	C426.214081,561.188293 410.686829,554.146240 394.976318,546.802490 
z"/>
<path fill="#0090FD" opacity="1.000000" stroke="none" 
	d="
M450.080383,587.522339 
	C450.742737,584.803406 448.165192,581.380859 452.641907,580.391357 
	C453.982971,583.712585 455.019379,586.636841 455.718872,589.639526 
	C456.364716,592.411987 457.586914,592.994629 460.334961,592.139343 
	C462.894073,591.342773 466.180084,590.229309 468.311462,591.162231 
	C478.419952,595.586914 488.205658,600.742554 498.186829,605.467773 
	C501.883026,607.217590 505.735138,608.702759 509.630646,609.951355 
	C515.238953,611.749084 521.640930,612.113892 526.447876,615.107544 
	C532.633972,618.960144 538.931641,619.451416 545.694885,620.134277 
	C555.530762,621.127319 565.370422,622.505249 574.246094,627.645996 
	C576.689087,629.060913 579.813721,629.392334 582.676208,629.969849 
	C588.297852,631.104004 594.670532,630.759460 599.440247,633.379272 
	C607.915710,638.034790 616.402222,642.050293 625.842529,644.205627 
	C629.127014,644.955505 632.028137,646.849548 631.555359,650.994934 
	C628.737244,650.998108 626.363708,650.999023 623.562256,651.002563 
	C621.418762,651.001770 619.703308,650.998413 617.987793,650.995117 
	C614.510864,645.472717 608.527039,645.284973 603.067322,644.016296 
	C598.767700,643.017212 594.448853,642.100891 590.134521,641.165833 
	C586.263367,640.326721 582.333801,639.702820 578.524475,638.644165 
	C572.239624,636.897461 566.114868,634.514771 559.773315,633.044067 
	C544.516235,629.505737 529.162537,626.386353 513.868713,623.003418 
	C507.477844,621.589722 501.109070,620.048706 494.799591,618.313538 
	C493.180450,617.868286 491.317017,616.797302 490.434753,615.446350 
	C486.415070,609.291260 482.619598,607.194092 475.831726,608.638306 
	C472.017578,609.449890 469.673157,608.765808 467.845215,604.993591 
	C466.160919,601.517822 464.050385,597.523865 458.401062,599.960815 
	C451.837891,598.278564 451.835663,592.552795 450.080383,587.522339 
z"/>
<path fill="#04A3FB" opacity="1.000000" stroke="none" 
	d="
M623.990234,651.000000 
	C626.363708,650.999023 628.737244,650.998108 632.023499,650.997925 
	C639.901062,650.370667 647.233643,652.604065 653.838501,648.304565 
	C652.696106,647.469971 651.503357,647.331909 650.375305,646.984131 
	C645.064636,645.346680 639.177063,644.608337 634.604309,641.765320 
	C626.652527,636.821777 619.516479,630.566040 612.038452,624.860413 
	C626.652466,627.095825 641.269470,629.311279 655.879700,631.571167 
	C678.882080,635.129089 701.879822,638.717041 725.299255,642.384399 
	C726.388428,652.727844 726.388672,652.532410 716.173218,652.520752 
	C702.631592,652.505310 689.089417,652.985840 675.547729,652.974426 
	C658.677856,652.960266 641.808350,652.661926 624.495361,652.149109 
	C624.013184,651.542664 623.992554,651.272034 623.990234,651.000000 
z"/>
<path fill="#0592F3" opacity="1.000000" stroke="none" 
	d="
M861.094666,288.235016 
	C891.088562,265.701569 927.663818,264.392761 959.934204,283.440216 
	C960.488159,283.767181 960.887512,284.356110 961.354248,285.249756 
	C957.358093,286.576477 952.218201,284.463348 949.996460,290.004791 
	C932.021118,281.323517 913.266541,278.382690 893.925537,283.967285 
	C885.896729,286.285492 878.419189,290.512909 870.074829,293.709686 
	C868.619629,288.707947 863.587646,290.470276 861.094666,288.235016 
z"/>
<path fill="#0277FA" opacity="1.000000" stroke="none" 
	d="
M912.032104,396.706573 
	C903.568054,392.597290 895.055603,388.581696 886.701416,384.260101 
	C885.658020,383.720428 884.954041,381.567841 884.938049,380.152985 
	C884.827271,370.363129 884.940552,360.570740 885.474121,350.409973 
	C894.613708,354.117981 903.260986,358.195190 911.930054,362.723450 
	C911.969666,367.968597 911.993164,372.762726 912.004028,377.556854 
	C912.018555,383.940094 912.023193,390.323334 912.032104,396.706573 
z"/>
<path fill="#04A3FB" opacity="1.000000" stroke="none" 
	d="
M912.383423,396.743958 
	C912.023193,390.323334 912.018555,383.940094 912.004028,377.556854 
	C911.993164,372.762726 911.969666,367.968597 912.292358,362.614014 
	C921.229492,357.947174 929.826111,353.840820 938.422729,349.734497 
	C938.558899,360.365723 938.832458,370.999115 938.664795,381.625549 
	C938.642822,383.021667 936.619324,384.872101 935.084778,385.675934 
	C927.717346,389.535309 920.199341,393.107300 912.383423,396.743958 
z"/>
<path fill="#0381F1" opacity="1.000000" stroke="none" 
	d="
M875.728271,324.188110 
	C872.270081,321.547943 872.441101,319.500061 875.536621,316.865173 
	C897.058044,298.546539 928.683472,298.206238 950.398743,316.325470 
	C952.308105,317.918701 955.897766,319.402832 952.875061,323.007446 
	C950.515869,325.820648 948.569092,327.850281 944.341614,324.730896 
	C928.253479,312.859558 910.802795,309.832642 892.272888,318.731720 
	C887.821716,320.869415 883.840454,323.985657 879.293396,326.873962 
	C878.341553,326.163086 877.175537,325.292206 875.728271,324.188110 
z"/>
<path fill="#46C0F9" opacity="1.000000" stroke="none" 
	d="
M938.297363,349.412262 
	C929.826111,353.840820 921.229492,357.947174 912.270630,362.162964 
	C903.260986,358.195190 894.613708,354.117981 885.628784,349.955475 
	C892.036316,346.133209 898.951416,342.666901 905.471191,338.571320 
	C910.436035,335.452484 914.513428,335.549255 919.451233,338.808258 
	C925.373657,342.717102 931.904602,345.703949 938.297363,349.412262 
z"/>
<path fill="#FBFBFB" opacity="1.000000" stroke="none" 
	d="
M839.349731,651.778931 
	C839.228821,650.814636 839.143250,649.373474 839.736633,648.994141 
	C844.974731,645.644897 841.839600,640.861450 841.744263,636.737549 
	C841.722534,635.797852 839.368347,634.530212 837.887573,634.096069 
	C835.705444,633.456421 833.108948,633.919434 831.137939,632.975342 
	C829.734680,632.303162 828.308960,630.082031 828.320740,628.563293 
	C828.329895,627.380127 830.498169,625.256836 831.776123,625.203308 
	C837.820374,624.950134 839.439697,619.880798 842.026611,616.096558 
	C842.648621,615.186584 841.550476,612.107910 840.354065,611.204773 
	C838.931763,610.131165 836.024109,609.394348 834.681335,610.149536 
	C830.498657,612.502075 826.753723,615.631897 822.830872,618.448914 
	C822.428894,618.737549 821.965515,619.173584 821.542114,619.160828 
	C819.103149,619.087402 816.667664,618.899353 814.230957,618.750122 
	C815.529846,616.868042 816.423828,614.251099 818.215759,613.263733 
	C821.473938,611.468506 823.269592,609.979187 820.142212,606.259583 
	C824.149414,606.002319 828.307861,606.100159 832.466492,606.113525 
	C843.148987,606.147705 848.089478,611.029663 848.083313,621.604858 
	C848.082581,622.770874 848.064636,623.936829 847.606689,625.560303 
	C846.252808,627.271606 844.521240,628.631836 844.665405,629.750427 
	C844.820190,630.952087 846.736389,631.926819 847.884033,633.000610 
	C847.714539,636.730530 848.479431,640.859436 847.106323,644.075439 
	C845.796509,647.143250 842.258362,649.259705 839.349731,651.778931 
z"/>
<path fill="#0381F1" opacity="1.000000" stroke="none" 
	d="
M950.215942,290.261963 
	C952.218201,284.463348 957.358093,286.576477 961.653564,285.418762 
	C965.865906,288.166779 969.827148,291.107056 973.663696,294.201965 
	C976.216858,296.261505 975.617737,298.552795 973.583740,300.611877 
	C971.646118,302.573364 969.819458,304.121429 966.772766,301.819550 
	C961.494263,297.831390 955.898193,294.263397 950.215942,290.261963 
z"/>
<path fill="#0381F1" opacity="1.000000" stroke="none" 
	d="
M860.791321,288.362640 
	C863.587646,290.470276 868.619629,288.707947 869.728149,293.774200 
	C867.085327,296.464325 864.039001,298.788208 861.295776,301.427185 
	C858.116943,304.485260 856.016357,302.551025 853.733643,300.305603 
	C851.145752,297.759949 851.921875,295.616333 854.344543,293.586609 
	C856.384033,291.877869 858.439514,290.188293 860.791321,288.362640 
z"/>
<path fill="#0381F1" opacity="1.000000" stroke="none" 
	d="
M623.562256,651.002563 
	C623.992554,651.272034 624.013184,651.542664 624.063232,652.015137 
	C610.207520,652.467957 596.341370,652.835632 582.473511,652.923889 
	C573.887268,652.978577 565.298279,652.608704 556.336182,652.268066 
	C557.839417,651.737244 559.715576,651.054810 561.594666,651.046631 
	C580.080627,650.966553 598.567017,650.998535 617.520508,650.996948 
	C619.703308,650.998413 621.418762,651.001770 623.562256,651.002563 
z"/>
<path fill="#F7F8FA" opacity="1.000000" stroke="none" 
	d="
M1182.020020,486.455261 
	C1186.116821,485.822571 1187.207642,487.545776 1186.450195,491.478668 
	C1185.810303,494.801392 1186.364380,498.343201 1185.861206,501.709015 
	C1185.679565,502.923309 1183.959961,503.907654 1182.527710,504.999512 
	C1182.046509,498.972382 1181.979736,492.942657 1182.020020,486.455261 
z"/>
<path fill="#FCFCFD" opacity="1.000000" stroke="none" 
	d="
M987.805542,470.755554 
	C995.141785,470.645874 1002.708679,470.768585 1010.269897,471.047485 
	C1011.787476,471.103455 1013.283264,471.753326 1014.893677,472.515869 
	C1008.356506,472.971558 1001.708801,473.224426 995.076172,473.011719 
	C992.710205,472.935852 990.380432,471.731934 987.805542,470.755554 
z"/>
<path fill="#FCFCFD" opacity="1.000000" stroke="none" 
	d="
M1234.889404,640.535645 
	C1234.291992,640.650818 1233.321533,640.292664 1233.330322,639.960449 
	C1233.478027,634.387268 1233.747925,628.817444 1234.362671,623.125244 
	C1234.813721,628.693909 1234.892700,634.384094 1234.889404,640.535645 
z"/>
<path fill="#FCFCFD" opacity="1.000000" stroke="none" 
	d="
M1234.819092,620.539673 
	C1231.445435,616.236633 1232.911621,611.220520 1234.342285,606.018311 
	C1234.799072,610.566528 1234.851929,615.324524 1234.819092,620.539673 
z"/>
<path fill="#F7F8FA" opacity="1.000000" stroke="none" 
	d="
M1180.376221,472.979553 
	C1181.554565,472.686920 1183.281494,472.067505 1184.558594,472.576569 
	C1185.588989,472.987366 1186.076660,474.759979 1186.805176,475.928406 
	C1185.496704,476.619507 1184.188232,477.310577 1182.494385,478.001831 
	C1181.649536,476.381470 1181.190063,474.760864 1180.376221,472.979553 
z"/>
<path fill="#F8F9FC" opacity="1.000000" stroke="none" 
	d="
M847.970703,632.569580 
	C846.736389,631.926819 844.820190,630.952087 844.665405,629.750427 
	C844.521240,628.631836 846.252808,627.271606 847.518555,626.008545 
	C847.938110,628.045654 847.997742,630.092102 847.970703,632.569580 
z"/>
<path fill="#FCFCFD" opacity="1.000000" stroke="none" 
	d="
M1234.826660,570.559448 
	C1231.583252,568.666992 1232.726929,565.949463 1234.395264,563.110107 
	C1234.804565,565.376404 1234.858521,567.749207 1234.826660,570.559448 
z"/>
<path fill="#FCFCFD" opacity="1.000000" stroke="none" 
	d="
M1234.844604,495.613037 
	C1234.511963,494.047699 1234.264404,492.098511 1234.389893,489.981506 
	C1234.818604,491.618896 1234.874268,493.424042 1234.844604,495.613037 
z"/>
<path fill="#FCFCFD" opacity="1.000000" stroke="none" 
	d="
M1234.828613,603.597717 
	C1234.518188,603.335693 1234.291260,602.763855 1234.404907,602.109070 
	C1234.801025,602.446716 1234.856445,602.867310 1234.828613,603.597717 
z"/>
<path fill="#FCFCFD" opacity="1.000000" stroke="none" 
	d="
M1234.830811,578.595703 
	C1234.518921,578.334595 1234.290161,577.762817 1234.401733,577.106445 
	C1234.799438,577.442932 1234.856689,577.864075 1234.830811,578.595703 
z"/>
<path fill="#FCFCFD" opacity="1.000000" stroke="none" 
	d="
M1234.803955,529.598511 
	C1234.591553,529.551941 1234.416992,529.356995 1234.503662,529.157959 
	C1234.764771,529.153870 1234.842041,529.450134 1234.803955,529.598511 
z"/>
<path fill="#F7F8FA" opacity="1.000000" stroke="none" 
	d="
M1138.000000,471.000000 
	C1115.719360,471.000000 1093.938599,471.000000 1072.157959,471.000000 
	C1072.158325,470.763062 1072.158691,470.526123 1072.159058,470.289185 
	C1107.985596,470.289185 1143.812256,470.289185 1179.638916,470.289185 
	C1179.642822,470.526123 1179.646729,470.763062 1179.650635,471.000000 
	C1165.933716,471.000000 1152.216919,471.000000 1138.000000,471.000000 
z"/>
<path fill="#F8F9FC" opacity="1.000000" stroke="none" 
	d="
M1036.144531,578.865479 
	C1036.125977,579.666626 1035.876343,580.237976 1035.626709,580.809265 
	C1035.149658,580.333801 1034.672852,579.858276 1034.195923,579.382812 
	C1034.768433,579.133789 1035.340942,578.884705 1036.144531,578.865479 
z"/>
<path fill="#F7F8FA" opacity="1.000000" stroke="none" 
	d="
M1196.504272,586.305176 
	C1197.202271,585.878174 1197.767334,585.711426 1198.332275,585.544678 
	C1198.231689,586.110962 1198.131104,586.677185 1198.030396,587.243408 
	C1197.477295,587.017395 1196.924316,586.791382 1196.504272,586.305176 
z"/>
<path fill="#F8F9FC" opacity="1.000000" stroke="none" 
	d="
M1032.195435,583.789917 
	C1031.953247,583.233276 1032.006348,582.738098 1032.059326,582.242920 
	C1032.502686,582.355774 1032.946045,582.468689 1033.389404,582.581665 
	C1033.089844,583.004883 1032.790283,583.428162 1032.195435,583.789917 
z"/>
<path fill="#0097FE" opacity="1.000000" stroke="none" 
	d="
M611.656067,624.655457 
	C619.516479,630.566040 626.652527,636.821777 634.604309,641.765320 
	C639.177063,644.608337 645.064636,645.346680 650.375305,646.984131 
	C651.503357,647.331909 652.696106,647.469971 653.838501,648.304565 
	C647.233643,652.604065 639.901062,650.370667 632.468140,650.995605 
	C632.028137,646.849548 629.127014,644.955505 625.842529,644.205627 
	C616.402222,642.050293 607.915710,638.034790 599.440247,633.379272 
	C594.670532,630.759460 588.297852,631.104004 582.676208,629.969849 
	C579.813721,629.392334 576.689087,629.060913 574.246094,627.645996 
	C565.370422,622.505249 555.530762,621.127319 545.694885,620.134277 
	C538.931641,619.451416 532.633972,618.960144 526.447876,615.107544 
	C521.640930,612.113892 515.238953,611.749084 509.630646,609.951355 
	C505.735138,608.702759 501.883026,607.217590 498.186829,605.467773 
	C488.205658,600.742554 478.419952,595.586914 468.311462,591.162231 
	C466.180084,590.229309 462.894073,591.342773 460.334961,592.139343 
	C457.586914,592.994629 456.364716,592.411987 455.718872,589.639526 
	C455.019379,586.636841 453.982971,583.712585 453.047363,580.377075 
	C456.616028,580.334167 460.232208,580.654175 463.844543,581.013428 
	C464.651642,581.093750 465.832886,581.027649 466.186218,581.509644 
	C471.041809,588.132568 478.923706,587.475952 485.585236,589.735291 
	C488.045654,590.569824 490.494873,591.456177 492.891022,592.458069 
	C501.706696,596.143799 510.359711,600.270569 519.333313,603.513611 
	C530.675537,607.612732 541.821045,612.791687 554.409851,612.108948 
	C556.038391,612.020569 557.822266,613.157104 559.395325,613.989014 
	C564.456421,616.665344 569.384033,619.605225 574.527466,622.105469 
	C575.642639,622.647644 577.516174,621.994446 578.908447,621.511353 
	C580.737000,620.876953 582.434814,619.865540 584.558472,619.013794 
	C585.164917,619.307617 585.401672,619.603882 585.975342,620.272095 
	C586.541199,620.838196 586.805725,620.937866 587.105896,620.942932 
	C587.105896,620.942932 587.027771,620.979309 587.061401,621.320190 
	C588.771057,623.103882 590.259705,625.367432 592.165588,625.802185 
	C595.233398,626.501892 598.596924,626.211304 601.795410,625.911560 
	C603.567017,625.745483 605.257263,624.710999 606.984192,624.067993 
	C608.414001,624.195496 609.843872,624.322998 611.656067,624.655457 
z"/>
<path fill="#04AEFD" opacity="1.000000" stroke="none" 
	d="
M527.306763,591.346924 
	C527.026062,591.767273 526.641968,591.743103 526.381104,591.910645 
	C517.387451,597.687195 511.908356,590.720703 505.700287,586.275940 
	C504.650757,585.524536 503.397949,584.908264 502.148224,584.609741 
	C495.003906,582.903259 488.277466,580.399658 482.103302,576.227173 
	C479.915314,574.748596 476.552032,575.112976 474.104553,573.881897 
	C472.118774,572.883179 469.542664,570.934998 469.258789,569.094727 
	C468.555664,564.536133 466.269226,564.943115 462.890167,565.446411 
	C457.755463,566.211304 452.466217,568.282104 447.405273,565.200317 
	C446.145020,564.432922 445.184692,563.173035 444.086517,562.139465 
	C445.257141,561.186218 446.287109,559.823914 447.627075,559.363159 
	C450.594788,558.342896 453.752350,557.885498 456.756744,556.954346 
	C457.627930,556.684326 458.242218,555.585510 458.987488,554.484619 
	C465.595062,554.624329 472.214203,554.937134 478.777924,555.716736 
	C488.508606,556.872559 498.226929,558.200928 507.885040,559.841248 
	C509.773834,560.162048 512.043152,561.865417 512.979065,563.567749 
	C517.943237,572.597229 522.538147,581.829651 527.306763,591.346924 
z"/>
<path fill="#04A3FB" opacity="1.000000" stroke="none" 
	d="
M606.639771,623.890198 
	C605.257263,624.710999 603.567017,625.745483 601.795410,625.911560 
	C598.596924,626.211304 595.233398,626.501892 592.165588,625.802185 
	C590.259705,625.367432 588.771057,623.103882 587.075928,621.279663 
	C593.469604,621.836182 599.882507,622.774292 606.639771,623.890198 
z"/>
<path fill="#04A3FB" opacity="1.000000" stroke="none" 
	d="
M586.992188,620.751221 
	C586.805725,620.937866 586.541199,620.838196 586.178711,620.475586 
	C586.359436,620.270935 586.637207,620.355042 586.992188,620.751221 
z"/>
<path fill="#04AEFD" opacity="1.000000" stroke="none" 
	d="
M528.087219,592.683228 
	C527.854736,592.730286 527.569519,592.500122 527.248291,591.986572 
	C527.486328,591.937439 527.760437,592.171692 528.087219,592.683228 
z"/>
<path fill="#F8F9FC" opacity="1.000000" stroke="none" 
	d="
M797.595581,558.045410 
	C797.205750,558.283020 796.818115,558.281128 796.432617,558.251221 
	C796.421875,558.250427 796.434326,557.949951 796.435913,557.789185 
	C796.823303,557.793396 797.210693,557.797729 797.595581,558.045410 
z"/>
</svg>